<?xml version="1.0" encoding="UTF-8"?>
<svg xmlns="http://www.w3.org/2000/svg" width="300px" height="53px" viewBox="0 0 238 42" fill="none">
  <path fill-rule="evenodd" clip-rule="evenodd" d="M85.1168 13.5083C86.3364 14.7276 86.9447 16.4279 86.9447 18.6092V31.5342H81.6787V19.6598C81.6787 17.5061 80.7494 16.4279 78.888 16.4279C77.8917 16.4279 77.1382 16.7458 76.6275 17.3817C76.1168 18.0176 75.8629 18.8415 75.8629 19.8533V31.5342H70.5968V19.7759C70.5968 18.6092 70.3401 17.7577 69.8294 17.2269C69.3187 16.696 68.6182 16.4279 67.728 16.4279C66.835 16.4279 66.1289 16.7458 65.6043 17.3817C65.0796 18.0176 64.8201 18.8691 64.8201 19.9335V31.5342H59.5513V12.3029H64.2285L64.4657 14.1304C64.9373 13.3784 65.6043 12.7812 66.4694 12.3416C67.3345 11.8993 68.3168 11.6781 69.4164 11.6781C70.7001 11.6781 71.822 11.9656 72.7764 12.5352C73.7336 13.1075 74.4061 13.8982 74.8024 14.91C75.2461 13.923 75.941 13.1379 76.8843 12.5545C77.8275 11.9712 78.9131 11.6781 80.1466 11.6781C82.2424 11.6781 83.9001 12.2891 85.1168 13.5083" fill="#0F2D52"></path>
  <path fill-rule="evenodd" clip-rule="evenodd" d="M90.5414 8.33005C89.8716 7.70799 89.5395 6.92834 89.5395 5.99387C89.5395 5.03452 89.8716 4.23552 90.5414 3.59964C91.2084 2.96375 92.026 2.64581 92.9972 2.64581C93.9405 2.64581 94.7386 2.96375 95.3944 3.59964C96.0502 4.23552 96.3767 5.03452 96.3767 5.99387C96.3767 6.92834 96.0502 7.70799 95.3944 8.33005C94.7386 8.95211 93.9405 9.26452 92.9972 9.26452C92.026 9.26452 91.2084 8.95211 90.5414 8.33005V8.33005ZM90.3265 31.5342H95.6316V12.3002H90.3265V31.5342Z" fill="#0F2D52"></path>
  <path fill-rule="evenodd" clip-rule="evenodd" d="M114.653 13.7229C115.859 15.0859 116.461 16.9216 116.461 19.2329V31.5359H111.193V20.2061C111.193 18.9343 110.911 17.986 110.35 17.364C109.783 16.7392 109.005 16.4295 108.008 16.4295C106.831 16.4295 105.94 16.7862 105.338 17.4995C104.735 18.2127 104.433 19.1804 104.433 20.3996V31.5359H99.1674V12.3018H103.884L104.079 14.3256C104.657 13.4436 105.43 12.7829 106.398 12.3405C107.369 11.9009 108.43 11.6797 109.582 11.6797C111.756 11.6797 113.447 12.3599 114.653 13.7229" fill="#0F2D52"></path>
  <path fill-rule="evenodd" clip-rule="evenodd" d="M123.731 30.8738C122.213 30.0167 121.013 28.8168 120.136 27.2713C119.257 25.7286 118.819 23.9565 118.819 21.9576C118.819 19.9587 119.263 18.1755 120.156 16.6023C121.046 15.0348 122.271 13.8211 123.829 12.964C125.389 12.1069 127.138 11.6784 129.078 11.6784C131.302 11.6784 133.23 12.2369 134.855 13.3538C136.479 14.468 137.567 15.9858 138.117 17.9073L133.362 19.6601C133.096 18.6482 132.566 17.8492 131.768 17.2659C130.967 16.6825 130.018 16.3895 128.919 16.3895C127.451 16.3895 126.293 16.8954 125.442 17.9073C124.59 18.9192 124.163 20.2573 124.163 21.9189C124.163 23.6302 124.602 24.9822 125.481 25.9692C126.357 26.9534 127.49 27.4483 128.88 27.4483C130.007 27.4483 130.967 27.1608 131.768 26.5912C132.566 26.0189 133.149 25.2421 133.518 24.2551L138.234 25.9692C137.656 27.863 136.518 29.367 134.816 30.4839C133.11 31.6009 131.132 32.1593 128.88 32.1593C126.968 32.1593 125.252 31.7308 123.731 30.8738" fill="#0F2D52"></path>
  <path fill-rule="evenodd" clip-rule="evenodd" d="M140.973 16.5647C141.824 15.022 143.021 13.8194 144.567 12.9623C146.113 12.108 147.896 11.6795 149.914 11.6795C151.932 11.6795 153.707 12.108 155.239 12.9623C156.771 13.8194 157.965 15.022 158.816 16.5647C159.665 18.1102 160.092 19.8934 160.092 21.92C160.092 23.9437 159.665 25.727 158.816 27.2724C157.965 28.8179 156.771 30.0178 155.239 30.8749C153.707 31.7292 151.932 32.1577 149.914 32.1577C147.896 32.1577 146.113 31.7292 144.567 30.8749C143.021 30.0178 141.824 28.8179 140.973 27.2724C140.121 25.727 139.695 23.9437 139.695 21.92C139.695 19.8934 140.121 18.1102 140.973 16.5647M146.378 26.0836C147.266 27.1508 148.432 27.6816 149.872 27.6816C151.315 27.6816 152.481 27.1508 153.372 26.0836C154.262 25.0192 154.708 23.6313 154.708 21.92C154.708 20.1782 154.262 18.771 153.372 17.6927C152.481 16.6173 151.315 16.0782 149.872 16.0782C148.432 16.0782 147.266 16.6173 146.378 17.6927C145.485 18.771 145.039 20.1782 145.039 21.92C145.039 23.6313 145.485 25.0192 146.378 26.0836" fill="#0F2D52"></path>
  <path fill-rule="evenodd" clip-rule="evenodd" d="M161.468 12.3016H165.712V7.43567L169.524 7.00714V12.3016H174.986V15.5722H169.524V25.3841C169.524 26.6034 169.792 27.4743 170.331 27.9913C170.867 28.511 171.659 28.7709 172.708 28.7709C173.283 28.7709 174.042 28.6935 174.986 28.5359V31.5356C173.808 31.848 172.655 32.0028 171.528 32.0028C169.669 32.0028 168.232 31.472 167.225 30.4076C166.215 29.3432 165.712 27.8364 165.712 25.8901V15.5722H161.468V12.3016Z" fill="#0F2D52"></path>
  <path fill-rule="evenodd" clip-rule="evenodd" d="M190.413 27.9144C191.421 27.2675 192.149 26.3828 192.593 25.2658L195.816 26.474C195.16 28.3181 194.022 29.7198 192.397 30.6791C190.77 31.6385 188.912 32.1195 186.816 32.1195C184.904 32.1195 183.202 31.6965 181.706 30.8533C180.213 30.0101 179.055 28.824 178.229 27.2923C177.403 25.7607 176.99 23.983 176.99 21.9565C176.99 19.9327 177.409 18.1412 178.249 16.5846C179.089 15.0253 180.238 13.8199 181.706 12.9629C183.174 12.1058 184.837 11.6801 186.699 11.6801C188.454 11.6801 190.039 12.0616 191.454 12.8274C192.869 13.5932 193.974 14.6632 194.775 16.04C195.573 17.4168 195.972 18.9982 195.972 20.7898C195.972 21.5694 195.894 22.3463 195.738 23.1259H180.883C180.933 24.8649 181.491 26.2583 182.552 27.3117C183.612 28.3623 185.022 28.8876 186.777 28.8876C188.192 28.8876 189.403 28.5641 190.413 27.9144M182.689 16.369C181.589 17.3422 180.986 18.6084 180.883 20.1649H192.082C192.032 18.5835 191.527 17.3118 190.569 16.3524C189.612 15.3903 188.334 14.9092 186.738 14.9092C185.139 14.9092 183.791 15.3958 182.689 16.369" fill="#0F2D52"></path>
  <path fill-rule="evenodd" clip-rule="evenodd" d="M203.481 30.8351C201.988 29.978 200.816 28.7781 199.962 27.2326C199.11 25.6899 198.686 23.9178 198.686 21.9189C198.686 19.92 199.119 18.1423 199.984 16.5858C200.846 15.0265 202.038 13.8211 203.559 12.964C205.077 12.1069 206.793 11.6784 208.708 11.6784C210.829 11.6784 212.698 12.2037 214.309 13.2543C215.919 14.3076 217.052 15.7812 217.708 17.6751L214.289 18.9192C213.868 17.7276 213.162 16.7848 212.165 16.0964C211.169 15.4108 209.977 15.0652 208.588 15.0652C206.782 15.0652 205.328 15.6872 204.229 16.9341C203.126 18.181 202.576 19.8426 202.576 21.9189C202.576 23.9952 203.135 25.6568 204.245 26.9036C205.359 28.1478 206.793 28.7698 208.551 28.7698C209.938 28.7698 211.13 28.427 212.126 27.7386C213.123 27.0529 213.856 26.1102 214.328 24.9158L217.708 26.2014C217.024 28.0703 215.86 29.5246 214.211 30.5613C212.559 31.6009 210.672 32.1206 208.551 32.1206C206.665 32.1206 204.974 31.6921 203.481 30.8351" fill="#0F2D52"></path>
  <mask id="mask0" maskUnits="userSpaceOnUse" x="221" y="3" width="17" height="29">
    <path fill-rule="evenodd" clip-rule="evenodd" d="M221.049 3.92944H237.318V31.535H221.049V3.92944Z" fill="white"></path>
  </mask>
  <g mask="url(#mask0)">
    <path fill-rule="evenodd" clip-rule="evenodd" d="M235.53 13.664C236.721 14.9883 237.319 16.766 237.319 18.9971V31.535H233.507V19.738C233.507 18.1815 233.152 17.012 232.446 16.2351C231.737 15.4555 230.769 15.0657 229.538 15.0657C228.045 15.0657 226.89 15.5578 226.081 16.5448C225.266 17.5318 224.861 18.8284 224.861 20.4375V31.535H221.049V3.92944H224.861V14.4436C225.436 13.5617 226.223 12.8788 227.219 12.3977C228.213 11.9194 229.301 11.6789 230.481 11.6789C232.655 11.6789 234.338 12.3397 235.53 13.664" fill="#0F2D52"></path>
  </g>
  <path fill-rule="evenodd" clip-rule="evenodd" d="M201.754 40.3835H200.063L199.77 41.2267H198.684L200.428 36.5654H201.402L203.138 41.2267H202.041L201.754 40.3835ZM201.469 39.5541L201.196 38.7606C201.037 38.2851 200.939 37.9782 200.908 37.8372C200.894 37.9174 200.8 38.2243 200.621 38.7606L200.35 39.5541H201.469Z" fill="#0F2D52"></path>
  <path fill-rule="evenodd" clip-rule="evenodd" d="M203.898 36.5652H204.811V39.3354C204.811 39.6865 204.897 39.9602 205.07 40.1565C205.243 40.3528 205.472 40.4496 205.757 40.4496C206.047 40.4496 206.279 40.3501 206.449 40.1482C206.616 39.9492 206.703 39.6782 206.703 39.3354V36.5652H207.613V39.4405C207.613 39.8137 207.537 40.1427 207.384 40.4275C207.23 40.7095 207.015 40.9307 206.733 41.0855C206.454 41.2431 206.128 41.3205 205.757 41.3205C205.383 41.3205 205.056 41.2431 204.777 41.0855C204.498 40.9307 204.28 40.7095 204.127 40.4275C203.973 40.1427 203.898 39.8137 203.898 39.4405V36.5652Z" fill="#0F2D52"></path>
  <path fill-rule="evenodd" clip-rule="evenodd" d="M211.168 37.8969C211.141 37.7089 211.054 37.5624 210.909 37.4573C210.761 37.355 210.577 37.3025 210.356 37.3025C210.141 37.3025 209.977 37.3495 209.854 37.438C209.731 37.5292 209.67 37.6481 209.67 37.7974C209.67 37.9467 209.726 38.0656 209.84 38.1513C209.955 38.237 210.108 38.3033 210.309 38.3531L210.962 38.5162C211.367 38.613 211.665 38.7816 211.863 39.0221C212.061 39.2627 212.159 39.5419 212.159 39.8626C212.159 40.1474 212.087 40.399 211.944 40.6174C211.799 40.8358 211.595 41.0044 211.33 41.1261C211.068 41.245 210.761 41.3086 210.415 41.3086C210.069 41.3086 209.762 41.245 209.497 41.1261C209.232 41.0044 209.02 40.8386 208.863 40.6284C208.71 40.4156 208.618 40.1778 208.593 39.9151L209.497 39.7824C209.505 39.976 209.592 40.1363 209.756 40.258C209.921 40.3824 210.139 40.4432 210.409 40.4432C210.649 40.4432 210.836 40.3934 210.973 40.2967C211.107 40.2027 211.174 40.0727 211.174 39.9096C211.174 39.6553 211.001 39.4838 210.655 39.3954L210.016 39.235C209.547 39.1217 209.207 38.9475 208.997 38.7153C208.788 38.483 208.685 38.201 208.685 37.872C208.685 37.5845 208.755 37.3357 208.891 37.1228C209.028 36.9099 209.223 36.7413 209.477 36.6251C209.731 36.5063 210.03 36.4454 210.376 36.4454C210.836 36.4454 211.219 36.556 211.52 36.78C211.821 37.0011 212.006 37.2997 212.067 37.673L211.168 37.8969Z" fill="#0F2D52"></path>
  <path fill-rule="evenodd" clip-rule="evenodd" d="M212.86 36.5654V37.4004H214.158V41.2295H215.062V37.4004H216.363V36.5654H212.86Z" fill="#0F2D52"></path>
  <path fill-rule="evenodd" clip-rule="evenodd" d="M220.792 38.9132C220.655 39.1454 220.465 39.3252 220.217 39.4551L220.957 41.2273H219.944L219.318 39.6514H218.258V41.2273H217.345V36.566H219.352C219.678 36.566 219.969 36.6323 220.22 36.7678C220.471 36.9005 220.661 37.0857 220.795 37.3207C220.929 37.5557 220.996 37.8212 220.996 38.1142C220.996 38.4156 220.929 38.681 220.792 38.9132V38.9132ZM218.258 38.8552H219.291C219.533 38.8552 219.726 38.7833 219.86 38.6395C219.994 38.4957 220.064 38.3243 220.064 38.1225C220.064 37.9207 219.994 37.7548 219.86 37.6249C219.726 37.4949 219.533 37.4286 219.291 37.4286H218.258V38.8552Z" fill="#0F2D52"></path>
  <path fill-rule="evenodd" clip-rule="evenodd" d="M224.79 40.3835H223.099L222.806 41.2267H221.72L223.464 36.5654H224.438L226.174 41.2267H225.077L224.79 40.3835ZM224.502 39.5541L224.232 38.7606C224.07 38.2851 223.975 37.9782 223.944 37.8372C223.93 37.9174 223.835 38.2243 223.657 38.7606L223.386 39.5541H224.502Z" fill="#0F2D52"></path>
  <path fill-rule="evenodd" clip-rule="evenodd" d="M227.081 36.5654V41.2295H230.017V40.3586H227.997V36.5654H227.081Z" fill="#0F2D52"></path>
  <path fill-rule="evenodd" clip-rule="evenodd" d="M231.067 41.2292H231.954V36.5652H231.067V41.2292Z" fill="#0F2D52"></path>
  <mask id="mask1" maskUnits="userSpaceOnUse" x="232" y="36" width="6" height="6">
    <path fill-rule="evenodd" clip-rule="evenodd" d="M232.865 36.5654H237.318V41.2267H232.865V36.5654Z" fill="white"></path>
  </mask>
  <g mask="url(#mask1)">
    <path fill-rule="evenodd" clip-rule="evenodd" d="M235.935 40.3835H234.243L233.95 41.2267H232.865L234.609 36.5654H235.583L237.319 41.2267H236.222L235.935 40.3835ZM235.65 39.5541L235.376 38.7606C235.217 38.2851 235.12 37.9782 235.089 37.8372C235.075 37.9174 234.98 38.2243 234.801 38.7606L234.531 39.5541H235.65Z" fill="#0F2D52"></path>
  </g>
  <path fill-rule="evenodd" clip-rule="evenodd" d="M48.8107 25.3717L32.0637 0L28.3381 5.64C25.98 9.21476 25.98 13.6189 28.3381 17.1909L41.273 36.7899C47.9735 36.7899 52.1595 30.4449 48.8107 25.3717" fill="#0F2D52"></path>
  <path fill-rule="evenodd" clip-rule="evenodd" d="M31.164 25.3717L14.417 0L10.6942 5.64C8.33331 9.21476 8.33331 13.6189 10.6942 17.1909L23.6291 36.7899C30.3268 36.7899 34.5128 30.4449 31.164 25.3717" fill="#0F2D52"></path>
  <mask id="mask2" maskUnits="userSpaceOnUse" x="0" y="13" width="15" height="24">
    <path fill-rule="evenodd" clip-rule="evenodd" d="M0 13.52H14.4942V36.7877H0V13.52Z" fill="white"></path>
  </mask>
  <g mask="url(#mask2)">
    <path fill-rule="evenodd" clip-rule="evenodd" d="M5.49321 13.52L1.77042 19.1627C-0.590515 22.7347 -0.590515 27.1389 1.77042 30.7137L5.78065 36.7877C12.4783 36.7877 16.6644 30.4455 13.3155 25.3723L5.49321 13.52Z" fill="#0F2D52"></path>
  </g>
</svg>
