<svg width="404" height="304" viewBox="0 0 404 304" fill="none" xmlns="http://www.w3.org/2000/svg">
<path opacity="0.3" d="M25.2895 154.326L26.5095 155.198L26.5175 155.187L26.5252 155.176L25.2895 154.326ZM130.092 2L130.812 0.683917L129.624 0.0343015L128.856 1.14977L130.092 2ZM179 28.7442L180.327 29.443L181.015 28.1365L179.72 27.4281L179 28.7442ZM119.612 141.535L118.285 140.836L117.408 142.5L119.226 142.984L119.612 141.535ZM248.454 154.326L249.674 155.198L249.682 155.187L249.69 155.176L248.454 154.326ZM353.257 2L353.99 0.691333L352.796 0.0228001L352.021 1.14977L353.257 2ZM401 28.7442L402.322 29.4537L403.018 28.1556L401.733 27.4355L401 28.7442ZM340.447 141.535L339.126 140.825L338.229 142.496L340.061 142.984L340.447 141.535ZM91.6645 303.5C141.399 303.5 177.007 267.947 177.007 218.279H174.007C174.007 266.286 139.746 300.5 91.6645 300.5V303.5ZM0.5 219.442C0.5 244.248 9.67737 265.297 25.7267 280.136C41.7669 294.967 64.5664 303.5 91.6645 303.5V300.5C65.1968 300.5 43.164 292.173 27.7634 277.934C12.372 263.703 3.5 243.473 3.5 219.442H0.5ZM24.0695 153.453C6.42987 178.113 0.5 201.671 0.5 219.442H3.5C3.5 202.329 9.21487 179.376 26.5095 155.198L24.0695 153.453ZM128.856 1.14977L24.0537 153.475L26.5252 155.176L131.328 2.85023L128.856 1.14977ZM179.72 27.4281L130.812 0.683917L129.372 3.31608L178.28 30.0603L179.72 27.4281ZM120.939 142.234L180.327 29.443L177.673 28.0453L118.285 140.836L120.939 142.234ZM177.007 218.279C177.007 180.473 155.666 149.583 119.998 140.085L119.226 142.984C153.426 152.091 174.007 181.666 174.007 218.279H177.007ZM312.5 303.5C361.028 303.5 399.007 267.987 399.007 218.279H396.007C396.007 266.245 359.458 300.5 312.5 300.5V303.5ZM222.5 219.442C222.5 244.233 231.375 265.281 247.134 280.127C262.886 294.966 285.401 303.5 312.5 303.5V300.5C286.034 300.5 264.298 292.174 249.191 277.943C234.092 263.719 225.5 243.488 225.5 219.442H222.5ZM247.234 153.453C229.625 178.07 222.5 201.624 222.5 219.442H225.5C225.5 202.376 232.349 179.418 249.674 155.198L247.234 153.453ZM352.021 1.14977L247.218 153.475L249.69 155.176L354.492 2.85023L352.021 1.14977ZM401.733 27.4355L353.99 0.691333L352.524 3.30867L400.267 30.0529L401.733 27.4355ZM341.769 142.244L402.322 29.4537L399.678 28.0347L339.126 140.825L341.769 142.244ZM399.007 218.279C399.007 180.436 376.468 149.574 340.833 140.085L340.061 142.984C374.295 152.1 396.007 181.703 396.007 218.279H399.007Z" fill="#0F2D52"/>
</svg>
