<svg width="404" height="304" viewBox="0 0 404 304" fill="none" xmlns="http://www.w3.org/2000/svg">
<path opacity="0.15" d="M91.6645 302C140.572 302 175.507 267.116 175.507 218.279C175.507 181.07 154.546 150.837 119.612 141.535L179 28.7442L130.092 2L25.2895 154.326C7.82238 178.744 2 202 2 219.442C2 268.279 38.0987 302 91.6645 302ZM312.5 302C360.243 302 397.507 267.116 397.507 218.279C397.507 181.07 375.382 150.837 340.447 141.535L401 28.7442L353.257 2L248.454 154.326C230.987 178.744 224 202 224 219.442C224 268.279 258.934 302 312.5 302Z" stroke="#0F2D52" stroke-width="3"/>
</svg>
