<svg width="1440" height="300" viewBox="0 0 1440 300" fill="none" xmlns="http://www.w3.org/2000/svg">
<g clip-path="url(#clip0)">
<path d="M1935.01 572.319L1281.43 -418L1136.03 -197.857C1044 -58.3255 1044 113.58 1136.03 253.004L1640.84 1018C1902.34 1018 2065.71 770.339 1935.01 572.319" stroke="#CD8215" stroke-width="3"/>
<path d="M1246.01 572.319L592.411 -418L447.118 -197.857C354.975 -58.3255 354.975 113.58 447.118 253.004L951.94 1018C1213.34 1018 1376.71 770.339 1246.01 572.319" stroke="#CD8215" stroke-width="3"/>
<path fill-rule="evenodd" clip-rule="evenodd" d="M244.238 108.912L99.0547 329.136C6.98175 468.542 6.98175 640.427 99.0547 779.942L255.448 1017C516.648 1017 679.898 769.475 549.298 571.479L244.238 108.912Z" stroke="#CD8215" stroke-width="3"/>
</g>
<defs>
<clipPath id="clip0">
<rect width="1440" height="300" fill="white"/>
</clipPath>
</defs>
</svg>
