<?xml version="1.0" encoding="UTF-8"?>
<svg width="50px" height="50px" viewBox="0 0 50 50" version="1.1" xmlns="http://www.w3.org/2000/svg" xmlns:xlink="http://www.w3.org/1999/xlink">
    <title>Artboard</title>
    <defs>
        <polygon id="path-1" points="0 2.61126471 14.4941657 2.61126471 14.4941657 25.8790294 0 25.8790294"></polygon>
    </defs>
    <g id="Artboard" stroke="none" stroke-width="1" fill="none" fill-rule="evenodd">
        <g id="Group-6-Copy" transform="translate(0.000000, 6.000000)">
            <path d="M48.8106977,25.3717059 L32.0637209,0 L28.3381395,5.64 C25.98,9.21476471 25.98,13.6189412 28.3381395,17.1909412 L41.2730233,36.7899412 C47.9734884,36.7899412 52.1595349,30.4449412 48.8106977,25.3717059" id="Fill-38" fill="#0F2D52"></path>
            <path d="M31.164,25.3717059 L14.4170233,0 L10.6942326,5.64 C8.33330233,9.21476471 8.33330233,13.6189412 10.6942326,17.1909412 L23.6291163,36.7899412 C30.3267907,36.7899412 34.5128372,30.4449412 31.164,25.3717059" id="Fill-40" fill="#0F2D52"></path>
            <g id="Group-44" transform="translate(-0.000000, 10.908700)">
                <mask id="mask-2" fill="white">
                    <use xlink:href="#path-1"></use>
                </mask>
                <g id="Clip-43"></g>
                <path d="M5.4932093,2.61126471 L1.7704186,8.25402941 C-0.590511628,11.8260294 -0.590511628,16.2302059 1.7704186,19.8049706 L5.78065116,25.8790294 C12.4783256,25.8790294 16.6643721,19.5367941 13.3155349,14.4635588 L5.4932093,2.61126471 Z" id="Fill-42" fill="#0F2D52" mask="url(#mask-2)"></path>
            </g>
        </g>
    </g>
</svg>