<?xml version="1.0" encoding="UTF-8"?>
<svg width="238px" height="43px" viewBox="0 0 238 43" version="1.1" xmlns="http://www.w3.org/2000/svg" xmlns:xlink="http://www.w3.org/1999/xlink">
    <title>Artboard</title>
    <defs>
        <polygon id="path-1" points="0.583813953 1.31489412 16.8530233 1.31489412 16.8530233 28.9204824 0.583813953 28.9204824"></polygon>
        <polygon id="path-3" points="1.23683721 0.774394118 5.69023256 0.774394118 5.69023256 5.43568824 1.23683721 5.43568824"></polygon>
        <polygon id="path-5" points="0 2.61126471 14.4941657 2.61126471 14.4941657 25.8790294 0 25.8790294"></polygon>
    </defs>
    <g id="Artboard" stroke="none" stroke-width="1" fill="none" fill-rule="evenodd">
        <g id="Group-46" transform="translate(0.000000, -2.000000)">
            <g id="Group-26" transform="translate(58.604651, 5.379565)">
                <path d="M26.512186,10.8937706 C27.7317209,12.1130059 28.340093,13.8133 28.340093,15.9946529 L28.340093,28.9196529 L23.0740465,28.9196529 L23.0740465,17.0452412 C23.0740465,14.8915353 22.1447442,13.8133 20.2833488,13.8133 C19.2870698,13.8133 18.5335814,14.1312412 18.0228837,14.7671235 C17.512186,15.4030059 17.2582326,16.2268882 17.2582326,17.2387706 L17.2582326,28.9196529 L11.992186,28.9196529 L11.992186,17.1613588 C11.992186,15.9946529 11.7354419,15.1431235 11.2247442,14.6123 C10.7140465,14.0814765 10.0135814,13.8133 9.12334884,13.8133 C8.23032558,13.8133 7.52427907,14.1312412 6.99962791,14.7671235 C6.47497674,15.4030059 6.21544186,16.2545353 6.21544186,17.3189471 L6.21544186,28.9196529 L0.946604651,28.9196529 L0.946604651,9.68835882 L5.62381395,9.68835882 L5.86102326,11.5158294 C6.33265116,10.7638294 6.99962791,10.1666529 7.86474419,9.72706471 C8.72986047,9.28471176 9.71218605,9.06353529 10.8117209,9.06353529 C12.0954419,9.06353529 13.2173023,9.35106471 14.1717209,9.92059412 C15.1289302,10.4928882 15.8014884,11.2835941 16.1977674,12.2954765 C16.6414884,11.3084765 17.3363721,10.5233 18.2796279,9.93994706 C19.2228837,9.35659412 20.3084651,9.06353529 21.5419535,9.06353529 C23.6377674,9.06353529 25.2954419,9.67453529 26.512186,10.8937706" id="Fill-1" fill="#0F2D52"></path>
                <path d="M31.9367442,5.71547647 C31.2669767,5.09341765 30.9348837,4.31377059 30.9348837,3.3793 C30.9348837,2.41994706 31.2669767,1.62094706 31.9367442,0.985064706 C32.6037209,0.349182353 33.4213953,0.0312411765 34.3925581,0.0312411765 C35.335814,0.0312411765 36.1339535,0.349182353 36.7897674,0.985064706 C37.4455814,1.62094706 37.772093,2.41994706 37.772093,3.3793 C37.772093,4.31377059 37.4455814,5.09341765 36.7897674,5.71547647 C36.1339535,6.33753529 35.335814,6.64994706 34.3925581,6.64994706 C33.4213953,6.64994706 32.6037209,6.33753529 31.9367442,5.71547647 L31.9367442,5.71547647 Z M31.7218605,28.9196529 L37.0269767,28.9196529 L37.0269767,9.68559412 L31.7218605,9.68559412 L31.7218605,28.9196529 Z" id="Fill-3" fill="#0F2D52"></path>
                <path d="M56.0483721,11.1083118 C57.2539535,12.4713118 57.8567442,14.3070765 57.8567442,16.6183706 L57.8567442,28.9213118 L52.587907,28.9213118 L52.587907,17.5915471 C52.587907,16.3197824 52.3060465,15.3714882 51.7451163,14.7494294 C51.1786047,14.1246059 50.4,13.8149588 49.4037209,13.8149588 C48.2260465,13.8149588 47.335814,14.1716059 46.7330233,14.8849 C46.1302326,15.5981941 45.8288372,16.5658412 45.8288372,17.7850765 L45.8288372,28.9213118 L40.5627907,28.9213118 L40.5627907,9.68725294 L45.2790698,9.68725294 L45.4744186,11.7110176 C46.052093,10.8290765 46.8251163,10.1683118 47.7934884,9.72595882 C48.7646512,9.28637059 49.8251163,9.06519412 50.9776744,9.06519412 C53.1516279,9.06519412 54.8427907,9.74531176 56.0483721,11.1083118" id="Fill-5" fill="#0F2D52"></path>
                <path d="M65.1262326,28.2591647 C63.608093,27.4021059 62.408093,26.2022235 61.531814,24.6567529 C60.6527442,23.1140471 60.2146047,21.3418706 60.2146047,19.3429882 C60.2146047,17.3441059 60.6583256,15.5608706 61.5513488,13.9877529 C62.4415814,12.4201647 63.6666977,11.2064588 65.223907,10.3494 C66.783907,9.49234118 68.5336744,9.06381176 70.4732093,9.06381176 C72.6973953,9.06381176 74.6257674,9.62228235 76.2499535,10.7392235 C77.8741395,11.8534 78.9625116,13.3712235 79.5122791,15.2926941 L74.7569302,17.0455176 C74.491814,16.0336353 73.9615814,15.2346353 73.1634419,14.6512824 C72.3625116,14.0679294 71.4136744,13.7748706 70.3141395,13.7748706 C68.8462326,13.7748706 67.688093,14.2808118 66.8369302,15.2926941 C65.9857674,16.3045765 65.5587907,17.6426941 65.5587907,19.3042824 C65.5587907,21.0156353 65.9969302,22.3675765 66.876,23.3545765 C67.7522791,24.3388118 68.8853023,24.8336941 70.2750698,24.8336941 C71.4025116,24.8336941 72.3625116,24.5461647 73.1634419,23.9766353 C73.9615814,23.4043412 74.5448372,22.6274588 74.9132093,21.6404588 L79.6294884,23.3545765 C79.051814,25.2484 77.9132093,26.7524 76.2108837,27.8693412 C74.5057674,28.9862824 72.5271628,29.5447529 70.2750698,29.5447529 C68.3634419,29.5447529 66.6471628,29.1162235 65.1262326,28.2591647" id="Fill-7" fill="#0F2D52"></path>
                <path d="M82.368,13.9501529 C83.2191628,12.4074471 84.4163721,11.2048 85.9624186,10.3477412 C87.5084651,9.49344706 89.2917209,9.06491765 91.3093953,9.06491765 C93.3270698,9.06491765 95.1019535,9.49344706 96.6340465,10.3477412 C98.1661395,11.2048 99.3605581,12.4074471 100.211721,13.9501529 C101.060093,15.4956235 101.48707,17.2788588 101.48707,19.3053882 C101.48707,21.3291529 101.060093,23.1123882 100.211721,24.6578588 C99.3605581,26.2033294 98.1661395,27.4032118 96.6340465,28.2602706 C95.1019535,29.1145647 93.3270698,29.5430941 91.3093953,29.5430941 C89.2917209,29.5430941 87.5084651,29.1145647 85.9624186,28.2602706 C84.4163721,27.4032118 83.2191628,26.2033294 82.368,24.6578588 C81.5168372,23.1123882 81.0898605,21.3291529 81.0898605,19.3053882 C81.0898605,17.2788588 81.5168372,15.4956235 82.368,13.9501529 M87.7735814,23.4690353 C88.6610233,24.5362118 89.8275349,25.0670353 91.2675349,25.0670353 C92.7103256,25.0670353 93.8768372,24.5362118 94.7670698,23.4690353 C95.6573023,22.4046235 96.103814,21.0167412 96.103814,19.3053882 C96.103814,17.5636235 95.6573023,16.1563882 94.7670698,15.0781529 C93.8768372,14.0026824 92.7103256,13.4635647 91.2675349,13.4635647 C89.8275349,13.4635647 88.6610233,14.0026824 87.7735814,15.0781529 C86.8805581,16.1563882 86.4340465,17.5636235 86.4340465,19.3053882 C86.4340465,21.0167412 86.8805581,22.4046235 87.7735814,23.4690353" id="Fill-9" fill="#0F2D52"></path>
                <path d="M102.862884,9.68697647 L107.107535,9.68697647 L107.107535,4.82109412 L110.919628,4.39256471 L110.919628,9.68697647 L116.381023,9.68697647 L116.381023,12.9576235 L110.919628,12.9576235 L110.919628,22.7695647 C110.919628,23.9888 111.187535,24.8596824 111.72614,25.3766824 C112.261953,25.8964471 113.054512,26.1563294 114.103814,26.1563294 C114.678698,26.1563294 115.437767,26.0789176 116.381023,25.9213294 L116.381023,28.9210353 C115.203349,29.2334471 114.050791,29.3882706 112.923349,29.3882706 C111.064744,29.3882706 109.627535,28.8574471 108.620093,27.7930353 C107.60986,26.7286235 107.107535,25.2218588 107.107535,23.2755059 L107.107535,12.9576235 L102.862884,12.9576235 L102.862884,9.68697647 Z" id="Fill-11" fill="#0F2D52"></path>
                <path d="M131.808558,25.2998235 C132.816,24.6528824 133.544372,23.7681765 133.988093,22.6512353 L137.211349,23.8594118 C136.555535,25.7034706 135.41693,27.1051765 133.792744,28.0645294 C132.165767,29.0238824 130.307163,29.5049412 128.211349,29.5049412 C126.299721,29.5049412 124.597395,29.0819412 123.101581,28.2387059 C121.608558,27.3954706 120.450419,26.2094118 119.624372,24.6777647 C118.798326,23.1461176 118.385302,21.3684118 118.385302,19.3418824 C118.385302,17.3181176 118.803907,15.5265882 119.643907,13.9700588 C120.483907,12.4107647 121.633674,11.2053529 123.101581,10.3482941 C124.569488,9.49123529 126.232744,9.06547059 128.09414,9.06547059 C129.849488,9.06547059 131.434605,9.447 132.849488,10.2128235 C134.264372,10.9786471 135.369488,12.0485882 136.170419,13.4254118 C136.968558,14.8022353 137.367628,16.3836471 137.367628,18.1751765 C137.367628,18.9548235 137.289488,19.7317059 137.133209,20.5113529 L122.278326,20.5113529 C122.328558,22.2503529 122.886698,23.6437647 123.947163,24.6971176 C125.007628,25.7477059 126.41693,26.273 128.172279,26.273 C129.587163,26.273 130.798326,25.9495294 131.808558,25.2998235 M124.083907,13.7544118 C122.984372,14.7275882 122.381581,15.9938235 122.278326,17.5503529 L133.477395,17.5503529 C133.427163,15.9689412 132.922047,14.6971765 131.964837,13.7378235 C131.007628,12.7757059 129.729488,12.2946471 128.133209,12.2946471 C126.53414,12.2946471 125.186233,12.7812353 124.083907,13.7544118" id="Fill-13" fill="#0F2D52"></path>
                <path d="M144.876,28.2204588 C143.382977,27.3634 142.210884,26.1635176 141.35693,24.6180471 C140.505767,23.0753412 140.081581,21.3031647 140.081581,19.3042824 C140.081581,17.3054 140.51414,15.5276941 141.379256,13.9711647 C142.241581,12.4118706 143.433209,11.2064588 144.95414,10.3494 C146.472279,9.49234118 148.188558,9.06381176 150.102977,9.06381176 C152.223907,9.06381176 154.093674,9.58910588 155.703907,10.6396941 C157.31414,11.6930471 158.447163,13.1666353 159.102977,15.0604588 L155.684372,16.3045765 C155.262977,15.1129882 154.55693,14.1702235 153.560651,13.4818118 C152.564372,12.7961647 151.372744,12.4505765 149.982977,12.4505765 C148.177395,12.4505765 146.723442,13.0726353 145.623907,14.3195176 C144.521581,15.5664 143.971814,17.2279882 143.971814,19.3042824 C143.971814,21.3805765 144.529953,23.0421647 145.640651,24.2890471 C146.75414,25.5331647 148.188558,26.1552235 149.946698,26.1552235 C151.333674,26.1552235 152.525302,25.8124 153.521581,25.1239882 C154.51786,24.4383412 155.251814,23.4955765 155.723442,22.3012235 L159.102977,23.5868118 C158.419256,25.4557529 157.255535,26.9099882 155.606233,27.9467529 C153.95414,28.9862824 152.067628,29.5060471 149.946698,29.5060471 C148.060186,29.5060471 146.369023,29.0775176 144.876,28.2204588" id="Fill-15" fill="#0F2D52"></path>
                <g id="Group-19" transform="translate(161.860465, 0.000000)">
                    <mask id="mask-2" fill="white">
                        <use xlink:href="#path-1"></use>
                    </mask>
                    <g id="Clip-18"></g>
                    <path d="M15.0647442,11.0494235 C16.2563721,12.3737176 16.8535814,14.1514235 16.8535814,16.3825412 L16.8535814,28.9204824 L13.0414884,28.9204824 L13.0414884,17.1234824 C13.0414884,15.5669529 12.6870698,14.3974824 11.9810233,13.6206 C11.272186,12.8409529 10.303814,12.4511294 9.07311628,12.4511294 C7.58009302,12.4511294 6.42474419,12.9432471 5.61544186,13.9302471 C4.80055814,14.9172471 4.39590698,16.2138941 4.39590698,17.8229529 L4.39590698,28.9204824 L0.583813953,28.9204824 L0.583813953,1.31489412 L4.39590698,1.31489412 L4.39590698,11.8290706 C4.9707907,10.9471294 5.75776744,10.2642471 6.75404651,9.78318824 C7.74753488,9.30489412 8.83590698,9.06436471 10.0163721,9.06436471 C12.1903256,9.06436471 13.8731163,9.72512941 15.0647442,11.0494235" id="Fill-17" fill="#0F2D52" mask="url(#mask-2)"></path>
                </g>
                <path d="M143.149395,37.7689235 L141.458233,37.7689235 L141.165209,38.6121588 L140.079628,38.6121588 L141.823814,33.9508647 L142.797767,33.9508647 L144.533581,38.6121588 L143.436837,38.6121588 L143.149395,37.7689235 Z M142.864744,36.9395118 L142.591256,36.1460412 C142.432186,35.6705118 142.334512,35.3636294 142.303814,35.2226294 C142.28986,35.3028059 142.194977,35.6096882 142.016372,36.1460412 L141.745674,36.9395118 L142.864744,36.9395118 Z" id="Fill-20" fill="#0F2D52"></path>
                <path d="M145.293488,33.9505882 L146.206047,33.9505882 L146.206047,36.7208235 C146.206047,37.0719412 146.292558,37.3456471 146.465581,37.5419412 C146.638605,37.7382353 146.867442,37.835 147.152093,37.835 C147.442326,37.835 147.673953,37.7354706 147.844186,37.5336471 C148.011628,37.3345882 148.09814,37.0636471 148.09814,36.7208235 L148.09814,33.9505882 L149.007907,33.9505882 L149.007907,36.8258824 C149.007907,37.1991176 148.932558,37.5281176 148.77907,37.8128824 C148.625581,38.0948824 148.410698,38.3160588 148.128837,38.4708824 C147.849767,38.6284706 147.523256,38.7058824 147.152093,38.7058824 C146.77814,38.7058824 146.451628,38.6284706 146.172558,38.4708824 C145.893488,38.3160588 145.675814,38.0948824 145.522326,37.8128824 C145.368837,37.5281176 145.293488,37.1991176 145.293488,36.8258824 L145.293488,33.9505882 Z" id="Fill-22" fill="#0F2D52"></path>
                <path d="M152.563814,35.2823471 C152.535907,35.0943471 152.449395,34.9478176 152.304279,34.8427588 C152.156372,34.7404647 151.972186,34.6879353 151.751721,34.6879353 C151.536837,34.6879353 151.372186,34.7349353 151.249395,34.8234059 C151.126605,34.9146412 151.065209,35.0335235 151.065209,35.1828176 C151.065209,35.3321118 151.121023,35.4509941 151.235442,35.5367 C151.34986,35.6224059 151.503349,35.6887588 151.704279,35.7385235 L152.357302,35.9016412 C152.761953,35.9984059 153.060558,36.1670529 153.258698,36.4075824 C153.456837,36.6481118 153.554512,36.9273471 153.554512,37.2480529 C153.554512,37.5328176 153.481953,37.7844059 153.339628,38.0028176 C153.194512,38.2212294 152.990791,38.3898765 152.725674,38.5115235 C152.463349,38.6304059 152.156372,38.6939941 151.810326,38.6939941 C151.464279,38.6939941 151.157302,38.6304059 150.892186,38.5115235 C150.62707,38.3898765 150.414977,38.2239941 150.258698,38.0138765 C150.105209,37.8009941 150.013116,37.5632294 149.988,37.3005824 L150.892186,37.1678765 C150.900558,37.3614059 150.98707,37.5217588 151.151721,37.6434059 C151.316372,37.7678176 151.534047,37.8286412 151.804744,37.8286412 C152.044744,37.8286412 152.231721,37.7788765 152.368465,37.6821118 C152.502419,37.5881118 152.569395,37.4581706 152.569395,37.2950529 C152.569395,37.0407 152.396372,36.8692882 152.050326,36.7808176 L151.411256,36.6204647 C150.942419,36.5071118 150.601953,36.3329353 150.392651,36.1007 C150.183349,35.8684647 150.080093,35.5864647 150.080093,35.2574647 C150.080093,34.9699353 150.14986,34.7211118 150.286605,34.5082294 C150.423349,34.2953471 150.618698,34.1267 150.872651,34.0105824 C151.126605,33.8917 151.425209,33.8308765 151.771256,33.8308765 C152.231721,33.8308765 152.614047,33.9414647 152.915442,34.1654059 C153.216837,34.3865824 153.401023,34.6851706 153.462419,35.0584059 L152.563814,35.2823471 Z" id="Fill-24" fill="#0F2D52"></path>
            </g>
            <polygon id="Fill-27" fill="#0F2D52" points="212.860465 39.3304294 212.860465 40.1653706 214.15814 40.1653706 214.15814 43.9944882 215.062326 43.9944882 215.062326 40.1653706 216.362791 40.1653706 216.362791 39.3304294"></polygon>
            <g id="Group-32" transform="translate(214.883721, 38.556035)" fill="#0F2D52">
                <path d="M5.90818605,3.12218235 C5.77144186,3.35441765 5.58167442,3.53412353 5.33330233,3.66406471 L6.07283721,5.43624118 L5.05981395,5.43624118 L4.43469767,3.86035882 L3.37423256,3.86035882 L3.37423256,5.43624118 L2.46167442,5.43624118 L2.46167442,0.774947059 L4.46818605,0.774947059 C4.79469767,0.774947059 5.08493023,0.8413 5.33609302,0.976770588 C5.58725581,1.10947647 5.77702326,1.29471176 5.91097674,1.52971176 C6.04493023,1.76471176 6.11190698,2.03012353 6.11190698,2.32318235 C6.11190698,2.62453529 6.04493023,2.88994706 5.90818605,3.12218235 L5.90818605,3.12218235 Z M3.37423256,3.06412353 L4.4067907,3.06412353 C4.6495814,3.06412353 4.84213953,2.99224118 4.97609302,2.84847647 C5.11004651,2.70471176 5.17981395,2.5333 5.17981395,2.33147647 C5.17981395,2.12965294 5.11004651,1.96377059 4.97609302,1.83382941 C4.84213953,1.70388824 4.6495814,1.63753529 4.4067907,1.63753529 L3.37423256,1.63753529 L3.37423256,3.06412353 Z" id="Fill-28"></path>
                <path d="M9.90613953,4.59245294 L8.21497674,4.59245294 L7.92195349,5.43568824 L6.83637209,5.43568824 L8.58055814,0.774394118 L9.55451163,0.774394118 L11.2903256,5.43568824 L10.1935814,5.43568824 L9.90613953,4.59245294 Z M9.61869767,3.76304118 L9.348,2.96957059 C9.18613953,2.49404118 9.09125581,2.18715882 9.06055814,2.04615882 C9.04660465,2.12633529 8.95172093,2.43321765 8.77311628,2.96957059 L8.5024186,3.76304118 L9.61869767,3.76304118 Z" id="Fill-30"></path>
            </g>
            <polygon id="Fill-33" fill="#0F2D52" points="227.081302 39.3304294 227.081302 43.9944882 230.017116 43.9944882 230.017116 43.1236059 227.996651 43.1236059 227.996651 39.3304294"></polygon>
            <polygon id="Fill-34" fill="#0F2D52" points="231.066977 43.9942118 231.954419 43.9942118 231.954419 39.3301529 231.066977 39.3301529"></polygon>
            <g id="Group-45" transform="translate(0.000000, 2.614859)">
                <g id="Group-37" transform="translate(231.627907, 35.941176)">
                    <mask id="mask-4" fill="white">
                        <use xlink:href="#path-3"></use>
                    </mask>
                    <g id="Clip-36"></g>
                    <path d="M4.30660465,4.59245294 L2.61544186,4.59245294 L2.3224186,5.43568824 L1.23683721,5.43568824 L2.98102326,0.774394118 L3.95497674,0.774394118 L5.6907907,5.43568824 L4.59404651,5.43568824 L4.30660465,4.59245294 Z M4.02195349,3.76304118 L3.74846512,2.96957059 C3.58939535,2.49404118 3.49172093,2.18715882 3.46102326,2.04615882 C3.44706977,2.12633529 3.35218605,2.43321765 3.1735814,2.96957059 L2.90288372,3.76304118 L4.02195349,3.76304118 Z" id="Fill-35" fill="#0F2D52" mask="url(#mask-4)"></path>
                </g>
                <path d="M48.8106977,25.5218294 L32.0637209,0.150123529 L28.3381395,5.79012353 C25.98,9.36488824 25.98,13.7690647 28.3381395,17.3410647 L41.2730233,36.9400647 C47.9734884,36.9400647 52.1595349,30.5950647 48.8106977,25.5218294" id="Fill-38" fill="#0F2D52"></path>
                <path d="M31.164,25.5218294 L14.4170233,0.150123529 L10.6942326,5.79012353 C8.33330233,9.36488824 8.33330233,13.7690647 10.6942326,17.3410647 L23.6291163,36.9400647 C30.3267907,36.9400647 34.5128372,30.5950647 31.164,25.5218294" id="Fill-40" fill="#0F2D52"></path>
                <g id="Group-44" transform="translate(0.000000, 11.058824)">
                    <mask id="mask-6" fill="white">
                        <use xlink:href="#path-5"></use>
                    </mask>
                    <g id="Clip-43"></g>
                    <path d="M5.4932093,2.61126471 L1.7704186,8.25402941 C-0.590511628,11.8260294 -0.590511628,16.2302059 1.7704186,19.8049706 L5.78065116,25.8790294 C12.4783256,25.8790294 16.6643721,19.5367941 13.3155349,14.4635588 L5.4932093,2.61126471 Z" id="Fill-42" fill="#0F2D52" mask="url(#mask-6)"></path>
                </g>
            </g>
        </g>
    </g>
</svg>