<?xml version="1.0" encoding="UTF-8"?>
<svg width="1440px" height="400px" viewBox="0 0 1440 400" version="1.1" xmlns="http://www.w3.org/2000/svg" xmlns:xlink="http://www.w3.org/1999/xlink">
    <title>Artboard</title>
    <g id="Artboard" stroke="none" stroke-width="1" fill="none" fill-rule="evenodd">
        <g id="Group-7"></g>
        <path d="M630.664474,352 C679.572368,352 714.506579,317.116279 714.506579,268.27907 C714.506579,231.069767 693.546053,200.837209 658.611842,191.534884 L718,78.744186 L669.092105,52 L564.289474,204.325581 C546.822368,228.744186 541,252 541,269.44186 C541,318.27907 577.098684,352 630.664474,352 Z M851.5,352 C899.243421,352 936.506579,317.116279 936.506579,268.27907 C936.506579,231.069767 914.381579,200.837209 879.447368,191.534884 L940,78.744186 L892.256579,52 L787.453947,204.325581 C769.986842,228.744186 763,252 763,269.44186 C763,318.27907 797.934211,352 851.5,352 Z" id="“" stroke="#0F2D52" stroke-width="3" opacity="0.15" fill-rule="nonzero"></path>
    </g>
</svg>